# xmcd
#
# Track frame offsets: 
#        150
#        611
#        12976
#        30246
#        45722
#        61114
#        79379
#        97396
#        114431
#        129777
#        141848
#        167802
#        195045
#        222905
#        242859
#        260958
#        278212
#        294100
#        303513
#        328492
#
# Disc length: 4690 seconds
#
# Revision: 0
# Processed by: cddbd v1.5.2PL0 Copyright (c) Steve Scherf et al.
# Submitted via: ExactAudioCopy v0.99pb4
#
DISCID=1e125014
DTITLE=Various Artist - prevue promo 1092A-2
DYEAR=2002
DGENRE=pop
TTITLE0=blank - data
TTITLE1=Louise Goffin - Instant Photo(Radio Edit)
TTITLE2=Alanis Morissette - Precious Illusions
TTITLE3=Kelly Osbourne - Papa Don't Preach
TTITLE4=M2M - Don't
TTITLE5=Avant - Makin' Good Love(Lyrics!!! - Thug Love Remix)
TTITLE6=Swizz Beatz feat.  Bounty Killer - Guilty
TTITLE7=Amanda Perez - I Like It(Lyric Content!!!)
TTITLE8=Amanda Perez feat.  Preemo - I Like It(Lyric Content!!!)
TTITLE9=Amerie (a-marie) - Why Don't We Fall In Love
TTITLE10=Phil Lesh and Friends - Night Of A Thousand Stars
TTITLE11=Phil Lesh and Friends - Real Thing, The
TTITLE12=Dave Alvin and The Guilty Men - Blue Boulevard(Live - Full Albu
TTITLE12=m Version - Applause Tag)
TTITLE13=Dave Alvin and The Guilty Men - Blue Boulevard(Live - Album Ver
TTITLE13=sion Edit (No Intro) - Applause Tag)
TTITLE14=Midnight Oil - Luritja Way
TTITLE15=Sinch - Something More
TTITLE16=Mad At Gravity - Walk Away
TTITLE17=Vines - Get Free
TTITLE18=Kittie - In Winter
TTITLE19=Aaron Lewis - Black(Live - Applause Tag)
EXTD=
EXTT0=
EXTT1=
EXTT2=
EXTT3=
EXTT4=
EXTT5=
EXTT6=
EXTT7=
EXTT8=
EXTT9=
EXTT10=
EXTT11=
EXTT12=
EXTT13=
EXTT14=
EXTT15=
EXTT16=
EXTT17=
EXTT18=
EXTT19=
PLAYORDER=
